# xmcd CD database file
#
# Track frame offsets:
#	150
#	15339
#	31152
#	63522
#	77636
#	105509
#	115366
#	129130
#	153596
#	174552
#	184055
#	209488
#	218518
#	223940
#	240565
#	257217
#	282356
#	302706
#
# Disc length: 4141 seconds
#
# Revision: 0
# Processed by: cddbd v1.5.2PL0 Copyright (c) Steve Scherf et al.
# Submitted via: CDex 1.70beta2
#
DISCID=f9102b12
DTITLE=Jimmy Rosenberg - feat. Bireli Lagrene - Angelo Debare
DYEAR=1900
DGENRE=Jazz
TTITLE0=1. THEM THERE EYES
TTITLE1=2. COQUETTE
TTITLE2=3. I'M IN THE MOOD FOR LOVE
TTITLE3=4. IT DON'T MEAN A THING
TTITLE4=5. NATURE BOY
TTITLE5=6. I CAN'T GIVE YOU ANYTHING BUT LOVE
TTITLE6=7. BLUES FOR IKE
TTITLE7=8. EMBRACEABLE YOU
TTITLE8=9. DONNA LEE
TTITLE9=10. VALSE DE WASSO
TTITLE10=11. TROUBLANT BOLERO
TTITLE11=12. LIMEHOUSE BLUES
TTITLE12=13. MYSTERY PACIFIC
TTITLE13=14. LOVE'S MELODY
TTITLE14=15. GROOVIN' HIGH
TTITLE15=16. THE SHEIK OF ARABY
TTITLE16=17. SEPTEMBER SONG
TTITLE17=18. MICRO
EXTD=
EXTT0=
EXTT1=
EXTT2=
EXTT3=
EXTT4=
EXTT5=
EXTT6=
EXTT7=
EXTT8=
EXTT9=
EXTT10=
EXTT11=
EXTT12=
EXTT13=
EXTT14=
EXTT15=
EXTT16=
EXTT17=
PLAYORDER=
